<svg xmlns="http://www.w3.org/2000/svg"><style>:root{visibility:hidden}:target{visibility:visible}</style><svg viewBox="0 0 12 9" fill="none" id="arrow-down"><path d="m6.67 7.71 5.1-5.3c.3-.3.3-.9 0-1.2-.3-.3-.9-.3-1.2 0l-4.5 4.7-4.5-4.7c-.3-.3-.9-.3-1.2 0-.2.1-.3.4-.3.6 0 .2.1.4.3.6l5.1 5.3c.3.4.9.4 1.2 0Z" fill="black"></path></svg><svg viewBox="0 0 6 9" fill="none" id="arrow"><path d="M5.05 4.07 1.25.67c-.2-.2-.6-.2-.9 0-.3.2-.2.6 0 .8l3.3 3-3.2 3c-.2.2-.2.6 0 .8 0 .1.3.2.4.2.1 0 .3-.1.4-.2l3.8-3.4c.3-.2.3-.6 0-.8Z" fill="white"></path></svg><svg viewBox="0 0 76 72" fill="none" id="burger"><path d="M71.58 47.7H5.6c-2.3 0-4.11 1.9-4.11 4.3v3.5c0 2.4 1.9 4.3 4.11 4.3h.9v1.1c0 5.5 4.31 10.1 9.63 10.1h44.7c5.32 0 9.63-4.5 9.63-10.1v-1.1h.9c2.31 0 4.12-1.9 4.12-4.3V52a4 4 0 0 0-3.91-4.3Zm-3.91 13.2c0 3.9-3.01 7-6.72 7H16.14c-3.71 0-6.72-3.2-6.72-7v-1.1h58.25v1.1Zm5.1-5.4c0 .7-.6 1.3-1.2 1.3H5.52c-.7 0-1.2-.6-1.2-1.3V52c0-.7.6-1.3 1.2-1.3h65.97c.7 0 1.2.6 1.2 1.3.1 0 .1 3.5.1 3.5Z" fill="#83B3D3"></path><path d="m17.14 39.4 5.41 4.1 5.32-4.1 5.3 4.1 5.32-4.1 5.42 4.1 5.31-4.1 5.31 4.1 5.42-4.1 5.31 4.1 6.22-4.7-1.7-2.5-4.52 3.4-5.31-4.1-5.42 4.1-5.31-4.1-5.31 4.1-5.42-4.1-5.31 4.1-5.31-4.1-5.32 4.1-5.41-4.1-5.31 4.1-4.52-3.4-1.7 2.5 6.22 4.7 5.3-4.1Z" fill="#83B3D3"></path><path d="M9.52 32.5h60.95c0-.6.1-1.2.1-1.9v-1.2C69.87 13.7 55.84 1 38.6 1 21.25 1 7.21 13.7 6.51 29.5v1.2c0 .6 0 1.2.1 1.8h2.91ZM38.59 4c15.64 0 28.47 11.3 29.08 25.5H9.52C10.12 15.4 22.95 4 38.59 4Z" fill="#83B3D3"></path><path d="M38.6 18.3c1.05 0 1.9-.9 1.9-2s-.85-2-1.9-2c-1.06 0-1.91.9-1.91 2s.85 2 1.9 2Z" fill="#83B3D3"></path><path d="M30.77 13.2c1.06 0 1.9-.9 1.9-2s-.84-2-1.9-2c-1.05 0-1.9.9-1.9 2s.85 2 1.9 2Z" fill="#83B3D3"></path><path d="M46.31 13.2c1.05 0 1.9-.9 1.9-2s-.85-2-1.9-2c-1.05 0-1.9.9-1.9 2s.85 2 1.9 2Z" fill="#83B3D3"></path></svg><svg viewBox="0 0 20 20" fill="none" id="date"><g opacity=".3"><path d="M7.75 12c.3 0 .5-.2.5-.5s-.2-.5-.5-.5-.5.2-.5.5.2.5.5.5Z" fill="black"></path><path d="M17 4h-2V2h-1v2H6V2H5v2H3c-.6 0-1 .4-1 1v11c0 .5.4 1 1 1h14c.5 0 1-.5 1-1V5c0-.6-.5-1-1-1Zm0 12H3V9h14v7ZM3 8V5h2v2h1V5h8v2h1V5h2v3H3Z" fill="black"></path><path d="M10 12c.3 0 .5-.2.5-.5s-.2-.5-.5-.5-.5.2-.5.5.2.5.5.5Z" fill="black"></path><path d="M12.25 12c.3 0 .5-.2.5-.5s-.2-.5-.5-.5-.5.2-.5.5.2.5.5.5Z" fill="black"></path><path d="M7.75 13c-.3 0-.5.2-.5.5s.2.5.5.5.5-.2.5-.5-.2-.5-.5-.5Z" fill="black"></path><path d="M5.5 12c.3 0 .5-.2.5-.5s-.2-.5-.5-.5-.5.2-.5.5.2.5.5.5Z" fill="black"></path><path d="M5.5 13c-.3 0-.5.2-.5.5s.2.5.5.5.5-.2.5-.5-.2-.5-.5-.5Z" fill="black"></path><path d="M10 13c-.3 0-.5.2-.5.5s.2.5.5.5.5-.2.5-.5-.2-.5-.5-.5Z" fill="black"></path><path d="M12.25 13c-.3 0-.5.2-.5.5s.2.5.5.5.5-.2.5-.5-.2-.5-.5-.5Z" fill="black"></path><path d="M14.5 12c.3 0 .5-.2.5-.5s-.2-.5-.5-.5-.5.2-.5.5.2.5.5.5Z" fill="black"></path><path d="M14.5 13c-.3 0-.5.2-.5.5s.2.5.5.5.5-.2.5-.5-.2-.5-.5-.5Z" fill="black"></path></g></svg><svg viewBox="0 0 19 17" fill="none" id="favorite"><path d="M9.58 17a.9.9 0 0 1-.8-.4c-5.42-6.1-6.72-7.5-7.03-7.9A5.4 5.4 0 0 1 6.16 0c1.31 0 2.51.5 3.52 1.3a5.47 5.47 0 0 1 9.03 4.1c0 1.3-.5 2.5-1.31 3.4l-7.02 7.9c-.2.2-.4.3-.8.3ZM3.56 7.5c.3.4 3.51 4 6.12 6.9l6.21-7c.5-.5.7-1.2.7-2 0-1.8-1.5-3.3-3.3-3.3-1 0-2 .5-2.71 1.3-.3.3-.6.4-.9.4-.3 0-.6-.2-.8-.4a3.7 3.7 0 0 0-2.71-1.3c-1.8 0-3.31 1.5-3.31 3.3-.1.9.3 1.6.7 2.1-.1 0-.1 0 0 0Z" fill="black"></path></svg><svg viewBox="0 0 77 72" fill="none" id="house"><path d="M31.12 65h16.06V41.2H31.12V65Zm2.91-20.9h10.14v18H34.03v-18Z" fill="#83B3D3"></path><path d="m74.4 39.3 2.1-2.1-9.94-9.9V0H52.6v13.6L38.95 0 1.5 37.2l2.1 2.1 7.84-7.8v37.6H7.42V72h64.16v-2.9h-5.12V31.5l7.93 7.8ZM63.54 69.1h-49.2V28.5l24.6-24.4 24.6 24.4v40.6Zm0-44.7-7.93-7.9V2.9h7.93v21.5Z" fill="#83B3D3"></path><path d="M31.32 27.1c0 4.3 3.51 7.7 7.73 7.7a7.8 7.8 0 0 0 7.83-7.7c0-4.3-3.51-7.7-7.83-7.7a7.72 7.72 0 0 0-7.73 7.7Zm7.83-5a5 5 0 0 1 5.02 4.9c0 2.7-2.2 4.9-5.02 4.9a5 5 0 0 1-5.02-4.9c0-2.7 2.2-4.9 5.02-4.9Z" fill="#83B3D3"></path><path d="M21.48 41.2h-3.01v3.9h3.01v-3.9Z" fill="#83B3D3"></path><path d="M27.4 41.2h-3v3.9h3v-3.9Z" fill="#83B3D3"></path><path d="M21.48 47.2h-3.01v3.9h3.01v-3.9Z" fill="#83B3D3"></path><path d="M27.4 47.2h-3v3.9h3v-3.9Z" fill="#83B3D3"></path><path d="M53.5 41.2h-3v3.9h3v-3.9Z" fill="#83B3D3"></path><path d="M59.43 41.2h-3.01v3.9h3.01v-3.9Z" fill="#83B3D3"></path><path d="M53.5 47.2h-3v3.9h3v-3.9Z" fill="#83B3D3"></path><path d="M59.43 47.2h-3.01v3.9h3.01v-3.9Z" fill="#83B3D3"></path></svg><svg viewBox="0 0 2 12" fill="none" id="i"><path fill-rule="evenodd" clip-rule="evenodd" d="M0 0h2v2H0V0Zm2 12H0V3h2v9Z" fill="white"></path></svg><svg viewBox="0 0 16 14" fill="none" id="icon-desktop"><path d="M16 12H0v2h16v-2Z" fill="black"></path><path d="M14 2v6H2V2h12Zm2-2H0v10h16V0Z" fill="black"></path></svg><svg viewBox="0 0 16 14" fill="none" id="icon-list"><path d="M2 0H0v2h2V0Z" fill="black"></path><path d="M16 0H4v2h12V0Z" fill="black"></path><path d="M2 4H0v2h2V4Z" fill="black"></path><path d="M16 4H4v2h12V4Z" fill="black"></path><path d="M2 8H0v2h2V8Z" fill="black"></path><path d="M16 8H4v2h12V8Z" fill="black"></path><path d="M2 12H0v2h2v-2Z" fill="black"></path><path d="M16 12H4v2h12v-2Z" fill="black"></path></svg><svg viewBox="0 0 16 14" fill="none" id="icon-tile"><path d="M4 0H0v6h4V0Z" fill="black"></path><path d="M16 0h-4v6h4V0Z" fill="black"></path><path d="M10 0H6v6h4V0Z" fill="black"></path><path d="M4 8H0v6h4V8Z" fill="black"></path><path d="M16 8h-4v6h4V8Z" fill="black"></path><path d="M10 8H6v6h4V8Z" fill="black"></path></svg><svg viewBox="0 0 15 15" fill="none" id="modal-close"><path d="M14.5 1.78 13.2.5 7.49 6.2 1.79.5.48 1.8l5.7 5.7-5.7 5.7 1.3 1.3 5.7-5.7 5.7 5.7 1.3-1.3-5.7-5.7 5.7-5.7Z" fill="black"></path></svg><svg viewBox="0 0 13 10" fill="none" id="ok"><path d="M11 0 4.5 7.4 1.1 3.5 0 4.7l4.5 5.2 7.7-8.6L11 0Z" fill="#3F5E72"></path></svg><svg viewBox="0 0 43 66" fill="none" id="search"><path d="m30.16 40.05-3.71-3.7c1-1.3 1.7-3 1.7-4.9 0-4.4-3.6-8-8.02-8a8.12 8.12 0 0 0-8.02 8.1 8.03 8.03 0 0 0 12.93 6.3l3.71 3.7 1.4-1.5Zm-10.03-2.5c-3.3 0-6.02-2.7-6.02-6a6.03 6.03 0 0 1 12.04 0c0 3.3-2.71 6-6.02 6Z" fill="black"></path></svg><svg viewBox="0 0 48 40" fill="none" id="social-telegram"><path d="m31.79 12.1-15.95 6.15c-1.09.43-1.08 1.04-.2 1.31l4.1 1.28 9.47-5.98c.44-.27.85-.12.52.18l-7.68 6.92-.28 4.22c.41 0 .6-.19.83-.41l1.99-1.93 4.13 3.05c.77.42 1.31.2 1.5-.7l2.72-12.8c.28-1.12-.43-1.62-1.15-1.3Z" fill="#83B3D3"></path></svg><svg viewBox="0 0 48 40" fill="none" id="social-vk"><path fill-rule="evenodd" clip-rule="evenodd" d="M35.12 13.95c.16-.55 0-.95-.8-.95H31.7c-.67 0-.98.35-1.15.73 0 0-1.33 3.2-3.22 5.27-.61.6-.9.8-1.23.8-.16 0-.41-.2-.41-.74v-5.11c0-.66-.19-.95-.74-.95h-4.13c-.42 0-.67.3-.67.6 0 .61.95.76 1.04 2.5v3.8c0 .84-.15.99-.48.99-.9 0-3.06-3.21-4.34-6.89-.25-.71-.5-1-1.18-1h-2.62c-.75 0-.9.35-.9.73 0 .68.89 4.07 4.14 8.55 2.17 3.06 5.23 4.72 8 4.72 1.68 0 1.88-.37 1.88-1v-2.32c0-.73.16-.88.7-.88.38 0 1.05.2 2.6 1.67 1.79 1.75 2.08 2.53 3.08 2.53h2.63c.75 0 1.12-.37.9-1.1-.23-.72-1.08-1.77-2.2-3.02-.62-.7-1.54-1.47-1.82-1.86-.39-.49-.28-.7 0-1.14 0 0 3.2-4.43 3.54-5.93Z" fill="#83B3D3"></path></svg><svg viewBox="0 0 48 40" fill="none" id="social-youtube"><path d="M31.94 11.5H16.51c-1.86 0-3.18 1.6-3.18 3.4V25c0 1.9 1.32 3.5 3.18 3.5h15.65c1.64 0 3.17-1.6 3.17-3.4V14.9c-.22-1.8-1.53-3.4-3.39-3.4ZM20.99 24.04v-8.08L28.33 20l-7.34 4.04Z" fill="#83B3D3"></path></svg><svg viewBox="0 0 18 17" fill="none" id="star"><path d="m9 0 2.1 6.5H18l-5.6 4 2.2 6.5L9 13l-5.6 4 2.2-6.5-5.6-4h6.9L9 0Z" fill="#83B3D3"></path></svg><svg viewBox="0 0 140 37" fill="none" id="stars-2"><g clip-path="url(#stars-2_0)"><path d="m9 10 2.1 6.5H18l-5.6 4 2.2 6.5L9 23l-5.6 4 2.2-6.5-5.6-4h6.9L9 10Z" fill="#83B3D3"></path></g><g clip-path="url(#stars-2_1)"><path d="m33 10 2.1 6.5H42l-5.6 4 2.2 6.5-5.6-4-5.6 4 2.2-6.5-5.6-4h6.9L33 10Z" fill="#83B3D3"></path></g><defs><clipPath id="stars-2_0"><rect width="18" height="17" fill="white" transform="translate(0 10)"></rect></clipPath><clipPath id="stars-2_1"><rect width="18" height="17" fill="white" transform="translate(24 10)"></rect></clipPath></defs></svg><svg viewBox="0 0 140 37" fill="none" id="stars-3"><g clip-path="url(#stars-3_0)"><path d="m9 10 2.1 6.5H18l-5.6 4 2.2 6.5L9 23l-5.6 4 2.2-6.5-5.6-4h6.9L9 10Z" fill="#83B3D3"></path></g><g clip-path="url(#stars-3_1)"><path d="m33 10 2.1 6.5H42l-5.6 4 2.2 6.5-5.6-4-5.6 4 2.2-6.5-5.6-4h6.9L33 10Z" fill="#83B3D3"></path></g><g clip-path="url(#stars-3_2)"><path d="m57 10 2.1 6.5H66l-5.6 4 2.2 6.5-5.6-4-5.6 4 2.2-6.5-5.6-4h6.9L57 10Z" fill="#83B3D3"></path></g><defs><clipPath id="stars-3_0"><rect width="18" height="17" fill="white" transform="translate(0 10)"></rect></clipPath><clipPath id="stars-3_1"><rect width="18" height="17" fill="white" transform="translate(24 10)"></rect></clipPath><clipPath id="stars-3_2"><rect width="18" height="17" fill="white" transform="translate(48 10)"></rect></clipPath></defs></svg><svg viewBox="0 0 140 37" fill="none" id="stars-4"><g clip-path="url(#stars-4_0)"><path d="m9 10 2.1 6.5H18l-5.6 4 2.2 6.5L9 23l-5.6 4 2.2-6.5-5.6-4h6.9L9 10Z" fill="#83B3D3"></path></g><g clip-path="url(#stars-4_1)"><path d="m33 10 2.1 6.5H42l-5.6 4 2.2 6.5-5.6-4-5.6 4 2.2-6.5-5.6-4h6.9L33 10Z" fill="#83B3D3"></path></g><g clip-path="url(#stars-4_2)"><path d="m57 10 2.1 6.5H66l-5.6 4 2.2 6.5-5.6-4-5.6 4 2.2-6.5-5.6-4h6.9L57 10Z" fill="#83B3D3"></path></g><g clip-path="url(#stars-4_3)"><path d="m81 10 2.1 6.5H90l-5.6 4 2.2 6.5-5.6-4-5.6 4 2.2-6.5-5.6-4h6.9L81 10Z" fill="#83B3D3"></path></g><defs><clipPath id="stars-4_0"><rect width="18" height="17" fill="white" transform="translate(0 10)"></rect></clipPath><clipPath id="stars-4_1"><rect width="18" height="17" fill="white" transform="translate(24 10)"></rect></clipPath><clipPath id="stars-4_2"><rect width="18" height="17" fill="white" transform="translate(48 10)"></rect></clipPath><clipPath id="stars-4_3"><rect width="18" height="17" fill="white" transform="translate(72 10)"></rect></clipPath></defs></svg><svg viewBox="0 0 76 76" fill="none" id="suprise"><path d="M67.6 22.46H42.8c13.8-6.9 14.9-11.3 14.4-13.7-1.2-4.01-5.7-7.01-10-5.41-5.6 2.1-7.1 10.4-8.6 16.41-2-6.1-3.8-13.8-8.2-17.71-1.3-1.1-3.1-2.3-5.8-2-4 .4-9.8 5.4-7.5 11 2.3 5.4 9.7 8.81 14.6 11.51H9.4a2.9 2.9 0 0 0-2.9 2.9v11.31c0 1.6 1.3 2.9 2.9 2.9h.3V76h57.8V39.57h.1c1.6 0 2.9-1.3 2.9-2.9v-11.3c0-1.6-1.3-2.9-2.9-2.9ZM48.9 5.86c2.1-.3 5 1.3 5.3 3.2.4 2.8-3.4 5.3-5.1 6.4-2.5 1.7-4.9 2.6-7.3 4.1.9-3.7 2.5-13 7.1-13.7Zm-22.9 10c-2.2-1.5-6.5-4.4-6.4-7.8.1-3.61 5.7-6.61 8.8-3.91 3.9 3.4 5.7 11.1 7.1 16.61-3.2-1.5-6.3-2.8-9.5-4.9ZM32 73H12.6V39.57H32V73Zm0-36.53H9.5v-11H32v11Zm10.2 0V73H35V25.57h7.2v10.9ZM64.5 73H45.1V39.57h19.4V73Zm2.9-36.53H45.1v-11h22.3v11Z" fill="#83B3D3"></path></svg><svg viewBox="0 0 19 9" fill="none" id="triangle"><g clip-path="url(#triangle_0)"><path d="M9.5 0 19 9H0l9.5-9Z" fill="#333333"></path></g><defs><clipPath id="triangle_0"><rect width="19" height="9" fill="white"></rect></clipPath></defs></svg><svg viewBox="0 0 13 13" fill="none" id="union"><path fill-rule="evenodd" clip-rule="evenodd" d="m.16 6.15 6-5.5 6 5.5v6.2h-12v-6.2Zm1 .4v4.8h10v-4.8l-5-4.5-5 4.5Zm4 3.8h-1v-3.5h4v3.5h-1v-2.5h-2v2.5Z" fill="white"></path></svg><svg viewBox="0 0 1200 57" fill="none" id="vector"><path d="M0 57V0l250 24V0l350 57L950 0v24l250-24v57H0Z" fill="white"></path></svg></svg>