<?xml version="1.0" encoding="utf-8"?><svg viewBox="0 0 77 76" xmlns="http://www.w3.org/2000/svg" xmlns:xlink="http://www.w3.org/1999/xlink"><style>:root>svg{display:none}:root>svg:target{display:block}</style><svg fill="none" viewBox="0 0 76 72" id="burger" xmlns="http://www.w3.org/2000/svg"><path d="M71.58 47.7H5.6c-2.3 0-4.11 1.9-4.11 4.3v3.5c0 2.4 1.9 4.3 4.11 4.3h.9v1.1c0 5.5 4.31 10.1 9.63 10.1h44.7c5.32 0 9.63-4.5 9.63-10.1v-1.1h.9c2.31 0 4.12-1.9 4.12-4.3V52a4 4 0 00-3.91-4.3zm-3.91 13.2c0 3.9-3.01 7-6.72 7H16.14c-3.71 0-6.72-3.2-6.72-7v-1.1h58.25v1.1zm5.1-5.4c0 .7-.6 1.3-1.2 1.3H5.52c-.7 0-1.2-.6-1.2-1.3V52c0-.7.6-1.3 1.2-1.3h65.97c.7 0 1.2.6 1.2 1.3.1 0 .1 3.5.1 3.5zM17.14 39.4l5.41 4.1 5.32-4.1 5.3 4.1 5.32-4.1 5.42 4.1 5.31-4.1 5.31 4.1 5.42-4.1 5.31 4.1 6.22-4.7-1.7-2.5-4.52 3.4-5.31-4.1-5.42 4.1-5.31-4.1-5.31 4.1-5.42-4.1-5.31 4.1-5.31-4.1-5.32 4.1-5.41-4.1-5.31 4.1-4.52-3.4-1.7 2.5 6.22 4.7 5.3-4.1zM9.52 32.5h60.95c0-.6.1-1.2.1-1.9v-1.2C69.87 13.7 55.84 1 38.6 1 21.25 1 7.21 13.7 6.51 29.5v1.2c0 .6 0 1.2.1 1.8h2.91zM38.59 4c15.64 0 28.47 11.3 29.08 25.5H9.52C10.12 15.4 22.95 4 38.59 4z" fill="#83B3D3"/><path d="M38.6 18.3c1.05 0 1.9-.9 1.9-2s-.85-2-1.9-2c-1.06 0-1.91.9-1.91 2s.85 2 1.9 2zM30.77 13.2c1.06 0 1.9-.9 1.9-2s-.84-2-1.9-2c-1.05 0-1.9.9-1.9 2s.85 2 1.9 2zM46.31 13.2c1.05 0 1.9-.9 1.9-2s-.85-2-1.9-2c-1.05 0-1.9.9-1.9 2s.85 2 1.9 2z" fill="#83B3D3"/></svg><svg fill="none" viewBox="0 0 19 17" id="favorite" xmlns="http://www.w3.org/2000/svg"><path d="M9.58 17a.9.9 0 01-.8-.4c-5.42-6.1-6.72-7.5-7.03-7.9A5.4 5.4 0 016.16 0c1.31 0 2.51.5 3.52 1.3a5.47 5.47 0 019.03 4.1c0 1.3-.5 2.5-1.31 3.4l-7.02 7.9c-.2.2-.4.3-.8.3zM3.56 7.5c.3.4 3.51 4 6.12 6.9l6.21-7c.5-.5.7-1.2.7-2 0-1.8-1.5-3.3-3.3-3.3-1 0-2 .5-2.71 1.3-.3.3-.6.4-.9.4-.3 0-.6-.2-.8-.4a3.7 3.7 0 00-2.71-1.3c-1.8 0-3.31 1.5-3.31 3.3-.1.9.3 1.6.7 2.1-.1 0-.1 0 0 0z" fill="#000"/></svg><svg fill="none" viewBox="0 0 77 72" id="house" xmlns="http://www.w3.org/2000/svg"><path d="M31.12 65h16.06V41.2H31.12V65zm2.91-20.9h10.14v18H34.03v-18z" fill="#83B3D3"/><path d="M74.4 39.3l2.1-2.1-9.94-9.9V0H52.6v13.6L38.95 0 1.5 37.2l2.1 2.1 7.84-7.8v37.6H7.42V72h64.16v-2.9h-5.12V31.5l7.93 7.8zM63.54 69.1h-49.2V28.5l24.6-24.4 24.6 24.4v40.6zm0-44.7l-7.93-7.9V2.9h7.93v21.5z" fill="#83B3D3"/><path d="M31.32 27.1c0 4.3 3.51 7.7 7.73 7.7a7.8 7.8 0 007.83-7.7c0-4.3-3.51-7.7-7.83-7.7a7.72 7.72 0 00-7.73 7.7zm7.83-5a5 5 0 015.02 4.9c0 2.7-2.2 4.9-5.02 4.9a5 5 0 01-5.02-4.9c0-2.7 2.2-4.9 5.02-4.9zM21.48 41.2h-3.01v3.9h3.01v-3.9zM27.4 41.2h-3v3.9h3v-3.9zM21.48 47.2h-3.01v3.9h3.01v-3.9zM27.4 47.2h-3v3.9h3v-3.9zM53.5 41.2h-3v3.9h3v-3.9zM59.43 41.2h-3.01v3.9h3.01v-3.9zM53.5 47.2h-3v3.9h3v-3.9zM59.43 47.2h-3.01v3.9h3.01v-3.9z" fill="#83B3D3"/></svg><svg fill="none" viewBox="0 0 43 66" id="search" xmlns="http://www.w3.org/2000/svg"><path d="M30.16 40.05l-3.71-3.7c1-1.3 1.7-3 1.7-4.9 0-4.4-3.6-8-8.02-8a8.12 8.12 0 00-8.02 8.1 8.03 8.03 0 0012.93 6.3l3.71 3.7 1.4-1.5zm-10.03-2.5c-3.3 0-6.02-2.7-6.02-6a6.03 6.03 0 0112.04 0c0 3.3-2.71 6-6.02 6z" fill="#000"/></svg><svg fill="none" viewBox="0 0 48 40" id="social-facebook" xmlns="http://www.w3.org/2000/svg"><path d="M31.79 12.1l-15.95 6.15c-1.09.43-1.08 1.04-.2 1.31l4.1 1.28 9.47-5.98c.44-.27.85-.12.52.18l-7.68 6.92-.28 4.22c.41 0 .6-.19.83-.41l1.99-1.93 4.13 3.05c.77.42 1.31.2 1.5-.7l2.72-12.8c.28-1.12-.43-1.62-1.15-1.3z" fill="#83B3D3"/></svg><svg fill="none" viewBox="0 0 48 40" id="social-twitter" xmlns="http://www.w3.org/2000/svg"><path fill-rule="evenodd" clip-rule="evenodd" d="M35.12 13.95c.16-.55 0-.95-.8-.95H31.7c-.67 0-.98.35-1.15.73 0 0-1.33 3.2-3.22 5.27-.61.6-.9.8-1.23.8-.16 0-.41-.2-.41-.74v-5.11c0-.66-.19-.95-.74-.95h-4.13c-.42 0-.67.3-.67.6 0 .61.95.76 1.04 2.5v3.8c0 .84-.15.99-.48.99-.9 0-3.06-3.21-4.34-6.89-.25-.71-.5-1-1.18-1h-2.62c-.75 0-.9.35-.9.73 0 .68.89 4.07 4.14 8.55 2.17 3.06 5.23 4.72 8 4.72 1.68 0 1.88-.37 1.88-1v-2.32c0-.73.16-.88.7-.88.38 0 1.05.2 2.6 1.67 1.79 1.75 2.08 2.53 3.08 2.53h2.63c.75 0 1.12-.37.9-1.1-.23-.72-1.08-1.77-2.2-3.02-.62-.7-1.54-1.47-1.82-1.86-.39-.49-.28-.7 0-1.14 0 0 3.2-4.43 3.54-5.93z" fill="#83B3D3"/></svg><svg fill="none" viewBox="0 0 48 40" id="social-youtube" xmlns="http://www.w3.org/2000/svg"><path d="M31.94 11.5H16.51c-1.86 0-3.18 1.6-3.18 3.4V25c0 1.9 1.32 3.5 3.18 3.5h15.65c1.64 0 3.17-1.6 3.17-3.4V14.9c-.22-1.8-1.53-3.4-3.39-3.4zM20.99 24.04v-8.08L28.33 20l-7.34 4.04z" fill="#83B3D3"/></svg><svg fill="none" viewBox="0 0 18 17" id="star" xmlns="http://www.w3.org/2000/svg"><path d="M9 0l2.1 6.5H18l-5.6 4 2.2 6.5L9 13l-5.6 4 2.2-6.5-5.6-4h6.9L9 0z" fill="#83B3D3"/></svg><svg fill="none" viewBox="0 0 76 76" id="suprise" xmlns="http://www.w3.org/2000/svg"><path d="M67.6 22.46H42.8c13.8-6.9 14.9-11.3 14.4-13.7-1.2-4.01-5.7-7.01-10-5.41-5.6 2.1-7.1 10.4-8.6 16.41-2-6.1-3.8-13.8-8.2-17.71-1.3-1.1-3.1-2.3-5.8-2-4 .4-9.8 5.4-7.5 11 2.3 5.4 9.7 8.81 14.6 11.51H9.4a2.9 2.9 0 00-2.9 2.9v11.31c0 1.6 1.3 2.9 2.9 2.9h.3V76h57.8V39.57h.1c1.6 0 2.9-1.3 2.9-2.9v-11.3c0-1.6-1.3-2.9-2.9-2.9zM48.9 5.86c2.1-.3 5 1.3 5.3 3.2.4 2.8-3.4 5.3-5.1 6.4-2.5 1.7-4.9 2.6-7.3 4.1.9-3.7 2.5-13 7.1-13.7zm-22.9 10c-2.2-1.5-6.5-4.4-6.4-7.8.1-3.61 5.7-6.61 8.8-3.91 3.9 3.4 5.7 11.1 7.1 16.61-3.2-1.5-6.3-2.8-9.5-4.9zM32 73H12.6V39.57H32V73zm0-36.53H9.5v-11H32v11zm10.2 0V73H35V25.57h7.2v10.9zM64.5 73H45.1V39.57h19.4V73zm2.9-36.53H45.1v-11h22.3v11z" fill="#83B3D3"/></svg></svg>